<?xml version="1.0" standalone="no"?><!DOCTYPE svg PUBLIC "-//W3C//DTD SVG 1.1//EN" "http://www.w3.org/Graphics/SVG/1.1/DTD/svg11.dtd"><svg width="100%" height="100%" viewBox="0 0 480 240" version="1.1" xmlns="http://www.w3.org/2000/svg" xmlns:xlink="http://www.w3.org/1999/xlink" xml:space="preserve" style="fill-rule:evenodd;clip-rule:evenodd;stroke-linecap:round;stroke-linejoin:round;stroke-miterlimit:1.41421;"><g id="Layer1"><rect x="2.84217e-14" y="0" width="480" height="240" style="fill:#282828;"/><g id="Feature Icon"><rect x="174" y="82" width="137" height="91" style="fill:#fff;"/><g><path d="M185,97.6897l57.7215,0" style="fill:none;stroke-width:4px;stroke:#484848;"/><path d="M185,149.276l82.5517,0" style="fill:none;stroke-width:4px;stroke:#484848;"/><path d="M185,123.897l57.7215,0" style="fill:none;stroke-width:4px;stroke:#484848;"/><path d="M185,110.793l24.8966,0" style="fill:none;stroke-width:4px;stroke:#484848;"/><path d="M185,137l24.8966,0" style="fill:none;stroke-width:4px;stroke:#484848;"/><path d="M255.709,97.6897l43.2911,0" style="fill:none;stroke-width:4px;stroke:#484848;"/><path d="M255.709,123.897l43.2911,0" style="fill:none;stroke-width:4px;stroke:#484848;"/><path d="M221.69,110.793l77.3103,0" style="fill:none;stroke-width:4px;stroke:#484848;"/><path d="M221.69,137l77.3103,0" style="fill:none;stroke-width:4px;stroke:#484848;"/></g><path d="M205,68.5c0,-2.48528 -2.01472,-4.5 -4.5,-4.5l-22,0c-2.48528,0 -4.5,2.01472 -4.5,4.5l0,13.5l31,0l0,-13.5Z" style="fill:#fff;"/><path d="M236,68.5c0,-2.48528 -2.01472,-4.5 -4.5,-4.5l-22,0c-2.48528,0 -4.5,2.01472 -4.5,4.5l0,13.5l31,0l0,-13.5Z" style="fill:#f1f1f1;"/><path d="M267,68.5c0,-2.48528 -2.01472,-4.5 -4.5,-4.5l-22,0c-2.48528,0 -4.5,2.01472 -4.5,4.5l0,13.5l31,0l0,-13.5Z" style="fill:#e9e9e9;"/><path d="M180.69,73l17.3103,0" style="fill:none;stroke-width:4px;stroke:#d6d6d6;"/><path d="M212.69,73l15.3103,0" style="fill:none;stroke-width:4px;stroke:#d6d6d6;"/><path d="M243.69,73l15.3103,0" style="fill:none;stroke-width:4px;stroke:#d6d6d6;"/></g></g></svg>