<?xml version="1.0" standalone="no"?><!DOCTYPE svg PUBLIC "-//W3C//DTD SVG 1.1//EN" "http://www.w3.org/Graphics/SVG/1.1/DTD/svg11.dtd"><svg width="100%" height="100%" viewBox="0 0 480 240" version="1.1" xmlns="http://www.w3.org/2000/svg" xmlns:xlink="http://www.w3.org/1999/xlink" xml:space="preserve" style="fill-rule:evenodd;clip-rule:evenodd;stroke-linecap:round;stroke-linejoin:round;stroke-miterlimit:1.41421;"><g id="Layer1"><rect x="2.84217e-14" y="0" width="480" height="240" style="fill:#282828;"/><g id="Feature Icon"><rect x="174" y="70" width="137" height="81" style="fill:#fff;"/><g><path d="M185,85.6897l57.7215,0" style="fill:none;stroke-width:4px;stroke:#484848;"/><path d="M185,137.276l82.5517,0" style="fill:none;stroke-width:4px;stroke:#484848;"/><path d="M185,111.897l57.7215,0" style="fill:none;stroke-width:4px;stroke:#484848;"/><path d="M185,98.7931l24.8966,0" style="fill:none;stroke-width:4px;stroke:#484848;"/><path d="M185,125l24.8966,0" style="fill:none;stroke-width:4px;stroke:#484848;"/><path d="M255.709,85.6897l43.2911,0" style="fill:none;stroke-width:4px;stroke:#484848;"/><path d="M255.709,111.897l43.2911,0" style="fill:none;stroke-width:4px;stroke:#484848;"/><path d="M221.69,98.7931l77.3103,0" style="fill:none;stroke-width:4px;stroke:#484848;"/><path d="M221.69,125l77.3103,0" style="fill:none;stroke-width:4px;stroke:#484848;"/></g><g><path d="M311,56.5c0,-2.48528 -2.01472,-4.5 -4.5,-4.5l-128,0c-2.48528,0 -4.5,2.01472 -4.5,4.5l0,13.5l137,0l0,-13.5Z" style="fill:#f1f1f1;"/><path d="M184.69,61l59.3103,0" style="fill:none;stroke-width:4px;stroke:#d6d6d6;"/></g><g><rect x="174" y="151" width="137" height="18" style="fill:#f1f1f1;"/><path d="M184.69,160l59.3103,0" style="fill:none;stroke-width:4px;stroke:#d6d6d6;"/></g><g><path d="M311,169l-137,0l0,13.5c0,2.48528 2.01472,4.5 4.5,4.5l127.946,0c2.51516,0 4.55409,-2.03894 4.55409,-4.55409l0,-13.4459Z" style="fill:#f1f1f1;"/><path d="M184.69,178l59.3103,0" style="fill:none;stroke-width:4px;stroke:#d6d6d6;"/></g></g><path d="M174,169l137,0" style="fill:none;stroke-width:1px;stroke-linecap:butt;stroke:#e4e4e4;"/></g></svg>