<?xml version="1.0" standalone="no"?><!DOCTYPE svg PUBLIC "-//W3C//DTD SVG 1.1//EN" "http://www.w3.org/Graphics/SVG/1.1/DTD/svg11.dtd"><svg width="100%" height="100%" viewBox="0 0 480 240" version="1.1" xmlns="http://www.w3.org/2000/svg" xmlns:xlink="http://www.w3.org/1999/xlink" xml:space="preserve" style="fill-rule:evenodd;clip-rule:evenodd;stroke-linejoin:round;stroke-miterlimit:1.41421;"><g id="Layer1"><rect x="2.84217e-14" y="0" width="480" height="240" style="fill:#282828;"/><rect x="185.518" y="60.5947" width="162.482" height="96.8931" style="fill:#8cd1ff;fill-opacity:0.529412;"/><rect x="137" y="60.5947" width="162.482" height="96.8931" style="fill:#8cd1ff;fill-opacity:0.529412;"/><g id="Feature Icon"><rect x="152.716" y="55.5006" width="179.567" height="107.081" style="fill:#8cd1ff;"/><circle cx="186.488" cy="85.9776" r="12.3555" style="fill:#fffa00;"/><path d="M200.491,116.455l47.7748,46.1273l-95.5495,0l47.7748,-46.1273Z" style="fill:#c4662b;fill-opacity:0.54902;"/><clipPath id="tag1"><path d="M200.491,116.455l47.7748,46.1273l-95.5495,0l47.7748,-46.1273Z"/></clipPath><g clip-path="url(#tag1)"><path d="M181.485,136.995l7.56896,-3.78448l5.04597,3.78448l3.78448,-3.78448l3.78448,5.04597l3.78448,-5.04597l5.04597,6.30747l3.78448,-3.78448l5.94704,2.52299l2.88341,-3.78448l-21.4454,-21.4454l-21.4454,18.9224l1.26149,5.04597Z" style="fill:#fff;"/></g><path d="M263.916,98.3331l68.3673,64.2488l-136.735,0l68.3673,-64.2488Z" style="fill:#c4662b;"/><clipPath id="tag2"><path d="M263.916,98.3331l68.3673,64.2488l-136.735,0l68.3673,-64.2488Z"/></clipPath><g clip-path="url(#tag2)"><path d="M238.381,123.044l9.88443,-4.94222l6.58962,4.94222l4.94222,-4.94222l4.94222,6.58962l4.94222,-6.58962l6.58962,8.23703l4.94222,-4.94222l7.76634,3.29481l3.7655,-4.94222l-28.0059,-28.0059l-28.0059,24.7111l1.64741,6.58962Z" style="fill:#fff;"/></g></g></g></svg>