<?xml version="1.0" standalone="no"?><!DOCTYPE svg PUBLIC "-//W3C//DTD SVG 1.1//EN" "http://www.w3.org/Graphics/SVG/1.1/DTD/svg11.dtd"><svg width="100%" height="100%" viewBox="0 0 480 240" version="1.1" xmlns="http://www.w3.org/2000/svg" xmlns:xlink="http://www.w3.org/1999/xlink" xml:space="preserve" style="fill-rule:evenodd;clip-rule:evenodd;stroke-linecap:round;stroke-linejoin:round;stroke-miterlimit:1.41421;"><g id="Layer1"><rect x="2.84217e-14" y="0" width="480" height="240" style="fill:#282828;"/><g id="Feature Icon"><rect x="188" y="51" width="109" height="143" style="fill:#fff;"/><g><path d="M200,138l44.0506,0" style="fill:none;stroke-width:4px;stroke:#484848;"/><path d="M200,127l63,0" style="fill:none;stroke-width:4px;stroke:#484848;"/><path d="M200,158l44.0506,0" style="fill:none;stroke-width:4px;stroke:#484848;"/><path d="M200,148l19,0" style="fill:none;stroke-width:4px;stroke:#484848;"/><path d="M200,168l19,0" style="fill:none;stroke-width:4px;stroke:#484848;"/><path d="M253.962,138l33.038,0" style="fill:none;stroke-width:4px;stroke:#484848;"/><path d="M253.962,158l33.038,0" style="fill:none;stroke-width:4px;stroke:#484848;"/><path d="M228,148l59,0" style="fill:none;stroke-width:4px;stroke:#484848;"/><path d="M228,168l59,0" style="fill:none;stroke-width:4px;stroke:#484848;"/></g><path d="M287,178c0,-1.65685 -1.34315,-3 -3,-3l-26.5714,0c-1.65685,0 -3,1.34315 -3,3l0,6c0,1.65685 1.34315,3 3,3l26.5714,0c1.65685,0 3,-1.34315 3,-3l0,-6Z" style="fill:#ce2922;"/><rect x="188" y="51" width="109" height="65" style="fill:#8cd1ff;"/><circle cx="208.5" cy="69.5" r="7.5" style="fill:#fffa00;"/><path d="M217,88l29,28l-58,0l29,-28Z" style="fill:#c4662b;fill-opacity:0.54902;"/><clipPath id="tag1"><path d="M217,88l29,28l-58,0l29,-28Z"/></clipPath><g clip-path="url(#tag1)"><path d="M205.463,100.469l4.59447,-2.29724l3.06298,2.29724l2.29724,-2.29724l2.29724,3.06298l2.29724,-3.06298l3.06298,3.82873l2.29724,-2.29724l3.60994,1.53149l1.75028,-2.29724l-13.0177,-13.0177l-13.0177,11.4862l0.765746,3.06298Z" style="fill:#fff;"/></g><path d="M255.5,77l41.5,39l-83,0l41.5,-39Z" style="fill:#c4662b;"/><clipPath id="tag2"><path d="M255.5,77l41.5,39l-83,0l41.5,-39Z"/></clipPath><g clip-path="url(#tag2)"><path d="M240,92l6,-3l4,3l3,-3l3,4l3,-4l4,5l3,-3l4.71429,2l2.28571,-3l-17,-17l-17,15l1,4Z" style="fill:#fff;"/></g></g></g></svg>