<?xml version="1.0" standalone="no"?>
<!DOCTYPE svg PUBLIC "-//W3C//DTD SVG 1.1//EN" "http://www.w3.org/Graphics/SVG/1.1/DTD/svg11.dtd">
<svg width="480px" height="240px" version="1.1" xmlns="http://www.w3.org/2000/svg" xmlns:xlink="http://www.w3.org/1999/xlink" xml:space="preserve" style="fill-rule:evenodd;clip-rule:evenodd;stroke-linejoin:round;stroke-miterlimit:1.41421;">
    <g id="Layer_1">
        <rect id="Image_Slider_1_" x="0" y="0.001" width="480" height="240" style="fill:rgb(40,40,40);"/>
        <g>
            <g>
                <g>
                    <rect x="87.0753" y="68.002" width="15.2803" height="68.9655" style="fill:white;"/>
                </g>
                <g>
                    <path d="M115.334,68.002L129.424,68.002L161.969,110.465L161.969,68.002L177.052,68.002L177.052,136.967L164.053,136.967L130.416,93.1251L130.416,136.967L115.334,136.967L115.334,68.002Z" style="fill:white;"/>
                </g>
                <g>
                    <path d="M224.768,81.3024L187.757,81.3024L187.757,68.002L244.415,68.002L244.415,79.5291L206.213,123.667L333.993,123.667L333.993,136.967L186.567,136.967L186.567,125.44L224.768,81.3024Z" style="fill:rgb(206,41,34);"/>
                </g>
                <g>
                    <rect x="254.981" y="68.002" width="15.2803" height="50.952" style="fill:white;"/>
                </g>
                <g>
                    <path d="M297.578,81.9923L276.444,81.9923L276.444,68.002L333.993,68.002L333.993,81.9923L312.858,81.9923L312.858,118.954L297.578,118.954L297.578,81.9923Z" style="fill:white;"/>
                </g>
                <g>
                    <path d="M340.035,68.002L392.425,68.002L392.425,81.5L355.217,81.5L355.217,95.4896L387.961,95.4896L387.961,108.987L355.217,108.987L355.217,123.47L392.921,123.47L392.921,136.967L340.035,136.967L340.035,68.002Z" style="fill:white;"/>
                </g>
                <g>
                    <path d="M111.586,165.132C111.586,165.224 111.561,165.305 111.513,165.373C111.466,165.442 111.382,165.497 111.263,165.537C111.143,165.577 110.991,165.614 110.806,165.643C110.62,165.669 110.378,165.684 110.08,165.684C109.805,165.684 109.569,165.669 109.371,165.643C109.173,165.614 109.019,165.577 108.903,165.537C108.79,165.497 108.71,165.442 108.66,165.373C108.613,165.303 108.59,165.224 108.59,165.132L108.59,145.637L108.555,145.637L100.611,165.219C100.576,165.299 100.527,165.369 100.463,165.424C100.399,165.484 100.305,165.532 100.183,165.573C100.061,165.614 99.9161,165.643 99.7482,165.66C99.5791,165.676 99.3789,165.685 99.1468,165.685C98.9027,165.685 98.6931,165.674 98.5199,165.65C98.3459,165.628 98.1997,165.597 98.0847,165.555C97.9688,165.516 97.8787,165.467 97.8148,165.409C97.7518,165.352 97.708,165.287 97.6842,165.219L90.0895,145.639L90.0711,145.639L90.0711,165.133C90.0711,165.224 90.0466,165.305 89.9991,165.375C89.9516,165.442 89.8676,165.497 89.7485,165.54C89.6285,165.578 89.4733,165.615 89.2809,165.643C89.0901,165.67 88.8449,165.685 88.5464,165.685C88.2594,165.685 88.0194,165.67 87.8282,165.643C87.637,165.615 87.4843,165.578 87.3709,165.54C87.2575,165.497 87.1801,165.442 87.1371,165.375C87.0961,165.305 87.0753,165.224 87.0753,165.132L87.0753,144.547C87.0753,144.063 87.2059,143.719 87.4638,143.51C87.7222,143.301 88.0116,143.198 88.3306,143.198L90.1706,143.198C90.5477,143.198 90.8769,143.233 91.1615,143.302C91.4452,143.372 91.6913,143.48 91.9038,143.633C92.1155,143.78 92.2927,143.972 92.4348,144.201C92.5765,144.432 92.701,144.705 92.8066,145.015L99.2528,161.222L99.3388,161.222L106.045,145.066C106.176,144.721 106.316,144.427 106.47,144.184C106.624,143.943 106.792,143.748 106.976,143.606C107.158,143.462 107.361,143.358 107.586,143.295C107.81,143.232 108.07,143.199 108.364,143.199L110.295,143.199C110.471,143.199 110.641,143.227 110.799,143.278C110.958,143.331 111.094,143.411 111.205,143.518C111.317,143.63 111.409,143.768 111.48,143.934C111.55,144.102 111.586,144.306 111.586,144.549L111.586,165.132Z" style="fill:white;"/>
                </g>
                <g>
                    <path d="M129.364,164.353C129.364,164.56 129.352,164.744 129.329,164.898C129.306,165.054 129.266,165.184 129.208,165.287C129.15,165.392 129.082,165.467 129.007,165.513C128.932,165.559 128.848,165.582 128.756,165.582L117.937,165.582C117.67,165.582 117.418,165.494 117.179,165.314C116.942,165.136 116.823,164.822 116.823,164.373L116.823,144.41C116.823,143.96 116.942,143.645 117.179,143.467C117.418,143.288 117.67,143.199 117.937,143.199L128.633,143.199C128.726,143.199 128.81,143.224 128.885,143.269C128.961,143.314 129.022,143.391 129.069,143.495C129.115,143.599 129.153,143.727 129.182,143.883C129.211,144.04 129.226,144.234 129.226,144.463C129.226,144.671 129.211,144.852 129.182,145.008C129.153,145.164 129.115,145.291 129.069,145.388C129.022,145.486 128.961,145.558 128.885,145.606C128.81,145.652 128.725,145.674 128.633,145.674L119.819,145.674L119.819,152.698L127.379,152.698C127.472,152.698 127.556,152.724 127.631,152.777C127.707,152.826 127.771,152.901 127.822,152.992C127.873,153.085 127.913,153.212 127.936,153.373C127.959,153.535 127.97,153.724 127.97,153.943C127.97,154.15 127.958,154.332 127.936,154.48C127.913,154.629 127.875,154.75 127.822,154.843C127.769,154.936 127.706,155.001 127.631,155.042C127.556,155.081 127.471,155.102 127.379,155.102L119.819,155.102L119.819,163.11L128.756,163.11C128.848,163.11 128.933,163.136 129.007,163.181C129.082,163.225 129.15,163.298 129.208,163.396C129.266,163.493 129.308,163.622 129.329,163.777C129.351,163.929 129.364,164.122 129.364,164.353Z" style="fill:white;"/>
                </g>
                <g>
                    <path d="M150.418,154.061C150.418,156 150.168,157.691 149.669,159.139C149.17,160.586 148.442,161.783 147.483,162.736C146.527,163.686 145.35,164.399 143.958,164.872C142.562,165.344 140.902,165.581 138.975,165.581L134.201,165.581C133.934,165.581 133.681,165.494 133.443,165.313C133.205,165.134 133.086,164.821 133.086,164.373L133.086,144.41C133.086,143.96 133.205,143.645 133.443,143.467C133.681,143.288 133.935,143.199 134.201,143.199L139.304,143.199C141.256,143.199 142.905,143.451 144.252,143.953C145.599,144.454 146.728,145.174 147.641,146.114C148.553,147.054 149.244,148.193 149.714,149.531C150.184,150.868 150.418,152.377 150.418,154.061ZM147.265,154.183C147.265,152.972 147.114,151.845 146.812,150.801C146.511,149.757 146.037,148.855 145.393,148.095C144.748,147.332 143.932,146.738 142.945,146.312C141.957,145.884 140.685,145.671 139.131,145.671L136.082,145.671L136.082,163.09L139.166,163.09C140.607,163.09 141.819,162.911 142.807,162.554C143.794,162.198 144.618,161.647 145.28,160.911C145.943,160.173 146.438,159.248 146.769,158.135C147.101,157.023 147.265,155.707 147.265,154.183Z" style="fill:white;"/>
                </g>
                <g>
                    <path d="M157.46,165.132C157.46,165.224 157.435,165.305 157.39,165.373C157.344,165.442 157.263,165.497 157.146,165.537C157.03,165.577 156.876,165.614 156.685,165.643C156.494,165.669 156.252,165.684 155.961,165.684C155.683,165.684 155.445,165.669 155.248,165.643C155.05,165.614 154.894,165.577 154.777,165.537C154.661,165.497 154.58,165.442 154.533,165.373C154.485,165.303 154.464,165.224 154.464,165.132L154.464,143.648C154.464,143.556 154.49,143.475 154.543,143.407C154.596,143.338 154.682,143.283 154.804,143.242C154.926,143.202 155.084,143.166 155.275,143.139C155.466,143.112 155.696,143.097 155.961,143.097C156.252,143.097 156.494,143.112 156.685,143.139C156.876,143.166 157.031,143.202 157.146,143.242C157.263,143.283 157.344,143.338 157.39,143.407C157.437,143.477 157.46,143.556 157.46,143.648L157.46,165.132Z" style="fill:white;"/>
                </g>
                <g>
                    <path d="M179.826,164.528C179.918,164.78 179.968,164.984 179.974,165.142C179.979,165.297 179.936,165.416 179.844,165.494C179.75,165.575 179.597,165.628 179.381,165.65C179.167,165.675 178.879,165.685 178.52,165.685C178.159,165.685 177.872,165.676 177.657,165.66C177.442,165.643 177.28,165.614 177.17,165.573C177.059,165.532 176.98,165.477 176.927,165.408C176.873,165.339 176.824,165.253 176.778,165.149L174.843,159.7L165.471,159.7L163.624,165.08C163.589,165.182 163.543,165.271 163.484,165.348C163.428,165.422 163.343,165.487 163.233,165.537C163.122,165.59 162.964,165.626 162.763,165.65C162.559,165.674 162.295,165.684 161.97,165.684C161.632,165.684 161.358,165.669 161.142,165.643C160.926,165.614 160.775,165.557 160.689,165.476C160.602,165.394 160.561,165.277 160.568,165.121C160.574,164.966 160.623,164.762 160.715,164.508L168.276,143.718C168.322,143.59 168.383,143.487 168.459,143.406C168.534,143.327 168.645,143.262 168.79,143.214C168.934,143.17 169.12,143.138 169.348,143.121C169.575,143.104 169.862,143.094 170.209,143.094C170.581,143.094 170.888,143.104 171.133,143.121C171.376,143.139 171.573,143.17 171.724,143.214C171.875,143.262 171.991,143.329 172.073,143.414C172.153,143.501 172.217,143.607 172.264,143.735L179.826,164.528ZM170.124,146.175L170.106,146.175L166.221,157.33L174.059,157.33L170.124,146.175Z" style="fill:white;"/>
                </g>
                <g>
                    <path d="M190.54,159.684C190.54,159.049 190.626,158.444 190.8,157.876C190.975,157.305 191.247,156.751 191.619,156.216C191.991,155.679 192.475,155.159 193.074,154.659C193.671,154.157 194.393,153.653 195.241,153.145C194.777,152.522 194.38,151.956 194.048,151.449C193.717,150.943 193.443,150.47 193.229,150.032C193.014,149.593 192.86,149.175 192.767,148.776C192.674,148.379 192.628,147.979 192.628,147.573C192.628,146.859 192.749,146.176 192.993,145.524C193.238,144.873 193.63,144.296 194.169,143.793C194.709,143.292 195.403,142.896 196.252,142.601C197.099,142.307 198.127,142.16 199.334,142.16C200.357,142.16 201.243,142.268 201.992,142.488C202.741,142.707 203.362,143.018 203.855,143.422C204.349,143.826 204.721,144.312 204.97,144.885C205.219,145.453 205.345,146.092 205.345,146.796C205.345,147.477 205.235,148.098 205.014,148.662C204.793,149.228 204.439,149.776 203.951,150.306C203.464,150.835 202.84,151.364 202.079,151.889C201.318,152.414 200.399,152.964 199.317,153.541C199.712,154.014 200.141,154.506 200.607,155.018C201.071,155.53 201.556,156.049 202.061,156.566C202.565,157.084 203.084,157.595 203.61,158.098C204.138,158.6 204.658,159.081 205.17,159.542C205.403,159.231 205.612,158.875 205.797,158.478C205.983,158.08 206.146,157.659 206.284,157.215C206.423,156.771 206.528,156.32 206.597,155.856C206.667,155.396 206.702,154.929 206.702,154.456L206.702,153.832C206.702,153.718 206.722,153.623 206.763,153.548C206.803,153.473 206.869,153.41 206.963,153.358C207.056,153.305 207.192,153.27 207.372,153.245C207.552,153.223 207.788,153.212 208.077,153.212C208.334,153.212 208.551,153.217 208.731,153.229C208.91,153.241 209.059,153.267 209.175,153.308C209.29,153.348 209.376,153.41 209.427,153.498C209.48,153.583 209.505,153.702 209.505,153.851L209.505,154.284C209.505,154.931 209.451,155.564 209.34,156.185C209.231,156.809 209.079,157.417 208.887,158.011C208.696,158.605 208.457,159.172 208.173,159.714C207.889,160.257 207.572,160.757 207.224,161.219C207.747,161.635 208.203,161.981 208.591,162.257C208.98,162.535 209.312,162.76 209.584,162.933C209.857,163.105 210.084,163.225 210.264,163.296C210.443,163.363 210.592,163.398 210.708,163.398C210.824,163.398 210.936,163.393 211.039,163.381C211.143,163.37 211.227,163.387 211.292,163.433C211.356,163.48 211.406,163.571 211.44,163.709C211.476,163.847 211.493,164.059 211.493,164.349C211.493,164.638 211.487,164.869 211.476,165.04C211.464,165.214 211.444,165.344 211.414,165.432C211.386,165.517 211.336,165.59 211.266,165.647C211.196,165.705 211.068,165.758 210.884,165.803C210.698,165.848 210.454,165.873 210.152,165.873C209.921,165.873 209.664,165.832 209.386,165.753C209.107,165.671 208.781,165.528 208.411,165.327C208.039,165.127 207.606,164.851 207.112,164.505C206.62,164.157 206.041,163.722 205.379,163.191C204.893,163.583 204.379,163.947 203.839,164.281C203.299,164.617 202.723,164.901 202.115,165.138C201.505,165.375 200.866,165.559 200.198,165.691C199.531,165.827 198.808,165.893 198.03,165.893C197.299,165.893 196.604,165.829 195.949,165.702C195.293,165.575 194.687,165.394 194.128,165.158C193.572,164.921 193.072,164.626 192.63,164.267C192.189,163.911 191.814,163.503 191.506,163.048C191.199,162.593 190.96,162.083 190.793,161.517C190.624,160.951 190.54,160.34 190.54,159.684ZM193.657,159.391C193.657,159.99 193.759,160.538 193.962,161.033C194.165,161.53 194.464,161.958 194.859,162.322C195.255,162.683 195.748,162.966 196.339,163.17C196.931,163.371 197.616,163.471 198.396,163.471C198.872,163.471 199.335,163.424 199.789,163.324C200.242,163.225 200.675,163.093 201.087,162.925C201.499,162.757 201.891,162.556 202.263,162.32C202.635,162.083 202.978,161.832 203.291,161.567C202.687,161.049 202.086,160.51 201.488,159.951C200.89,159.391 200.312,158.829 199.755,158.263C199.197,157.7 198.66,157.137 198.143,156.579C197.627,156.019 197.153,155.474 196.723,154.944C196.143,155.312 195.658,155.679 195.27,156.042C194.88,156.406 194.567,156.767 194.328,157.132C194.09,157.495 193.919,157.861 193.814,158.229C193.71,158.6 193.657,158.986 193.657,159.391ZM195.678,147.351C195.678,147.661 195.722,147.979 195.808,148.301C195.895,148.624 196.029,148.963 196.21,149.313C196.39,149.663 196.61,150.041 196.872,150.446C197.134,150.851 197.443,151.3 197.804,151.796C198.651,151.324 199.362,150.888 199.938,150.49C200.512,150.09 200.973,149.708 201.321,149.341C201.672,148.972 201.924,148.602 202.08,148.233C202.237,147.865 202.316,147.472 202.316,147.057C202.316,146.722 202.255,146.403 202.133,146.097C202.011,145.793 201.816,145.522 201.549,145.285C201.282,145.048 200.946,144.86 200.539,144.723C200.132,144.584 199.646,144.516 199.076,144.516C198.46,144.516 197.941,144.594 197.517,144.75C197.092,144.905 196.745,145.112 196.471,145.371C196.199,145.631 195.997,145.932 195.871,146.279C195.743,146.626 195.678,146.981 195.678,147.351Z" style="fill:white;"/>
                </g>
                <g>
                    <path d="M248.566,165.132C248.566,165.224 248.54,165.305 248.495,165.373C248.445,165.442 248.362,165.497 248.243,165.537C248.122,165.577 247.971,165.614 247.784,165.643C247.6,165.669 247.358,165.684 247.06,165.684C246.785,165.684 246.548,165.669 246.352,165.643C246.155,165.614 245.998,165.577 245.885,165.537C245.771,165.497 245.69,165.442 245.64,165.373C245.595,165.303 245.569,165.224 245.569,165.132L245.569,145.637L245.536,145.637L237.592,165.219C237.558,165.299 237.509,165.369 237.444,165.424C237.38,165.484 237.287,165.532 237.165,165.573C237.044,165.614 236.898,165.643 236.729,165.66C236.561,165.676 236.36,165.685 236.128,165.685C235.884,165.685 235.675,165.674 235.501,165.65C235.327,165.628 235.182,165.597 235.065,165.555C234.949,165.516 234.859,165.467 234.795,165.409C234.731,165.352 234.688,165.287 234.665,165.219L227.069,145.639L227.053,145.639L227.053,165.133C227.053,165.224 227.029,165.305 226.981,165.375C226.933,165.442 226.849,165.497 226.73,165.54C226.61,165.578 226.454,165.615 226.262,165.643C226.072,165.67 225.826,165.685 225.528,165.685C225.241,165.685 225.001,165.67 224.809,165.643C224.618,165.615 224.466,165.578 224.352,165.54C224.239,165.497 224.161,165.442 224.119,165.375C224.077,165.305 224.057,165.224 224.057,165.133L224.057,144.547C224.057,144.063 224.187,143.719 224.445,143.51C224.705,143.302 224.994,143.198 225.312,143.198L227.151,143.198C227.528,143.198 227.859,143.233 228.142,143.302C228.424,143.372 228.672,143.48 228.884,143.633C229.096,143.78 229.274,143.972 229.415,144.201C229.556,144.432 229.681,144.705 229.787,145.015L236.233,161.222L236.32,161.222L243.027,145.066C243.156,144.721 243.297,144.427 243.451,144.184C243.605,143.943 243.771,143.748 243.955,143.606C244.139,143.462 244.341,143.358 244.565,143.295C244.79,143.232 245.05,143.199 245.345,143.199L247.274,143.199C247.451,143.199 247.62,143.227 247.779,143.278C247.938,143.331 248.074,143.411 248.185,143.518C248.296,143.63 248.389,143.768 248.46,143.934C248.531,144.102 248.566,144.306 248.566,144.549L248.566,165.132Z" style="fill:white;"/>
                </g>
                <g>
                    <path d="M270.932,164.528C271.025,164.78 271.073,164.984 271.078,165.142C271.083,165.297 271.043,165.416 270.947,165.494C270.854,165.575 270.703,165.628 270.488,165.65C270.271,165.675 269.983,165.685 269.623,165.685C269.262,165.685 268.977,165.676 268.76,165.66C268.548,165.643 268.384,165.614 268.273,165.573C268.162,165.532 268.084,165.477 268.031,165.408C267.978,165.339 267.928,165.253 267.882,165.149L265.948,159.7L256.58,159.7L254.73,165.08C254.698,165.182 254.65,165.271 254.592,165.348C254.534,165.422 254.451,165.487 254.339,165.537C254.231,165.59 254.072,165.626 253.871,165.65C253.666,165.674 253.404,165.684 253.078,165.684C252.74,165.684 252.462,165.669 252.249,165.643C252.034,165.614 251.883,165.557 251.797,165.476C251.709,165.397 251.669,165.277 251.674,165.121C251.681,164.966 251.729,164.762 251.823,164.508L259.382,143.718C259.429,143.59 259.488,143.487 259.564,143.406C259.642,143.327 259.75,143.262 259.894,143.214C260.04,143.17 260.224,143.138 260.451,143.121C260.679,143.104 260.966,143.094 261.314,143.094C261.685,143.094 261.993,143.104 262.237,143.121C262.479,143.139 262.676,143.17 262.83,143.214C262.979,143.262 263.095,143.329 263.175,143.414C263.256,143.501 263.322,143.607 263.367,143.735L270.932,164.528ZM261.229,146.175L261.213,146.175L257.329,157.33L265.166,157.33L261.229,146.175Z" style="fill:white;"/>
                </g>
                <g>
                    <path d="M289.244,165.132C289.244,165.224 289.226,165.305 289.194,165.373C289.159,165.442 289.083,165.5 288.967,165.547C288.849,165.592 288.687,165.626 288.477,165.65C288.268,165.674 287.991,165.684 287.643,165.684C287.34,165.684 287.093,165.673 286.902,165.65C286.712,165.626 286.556,165.59 286.442,165.537C286.326,165.487 286.235,165.413 286.17,165.322C286.106,165.229 286.051,165.114 286.006,164.975L283.932,159.699C283.69,159.099 283.435,158.55 283.176,158.048C282.913,157.547 282.603,157.112 282.243,156.75C281.882,156.387 281.458,156.105 280.971,155.902C280.484,155.7 279.896,155.602 279.21,155.602L277.208,155.602L277.208,165.132C277.208,165.224 277.182,165.305 277.13,165.375C277.076,165.442 276.995,165.497 276.885,165.537C276.774,165.577 276.622,165.614 276.433,165.643C276.241,165.669 275.999,165.684 275.71,165.684C275.42,165.684 275.177,165.669 274.986,165.643C274.793,165.614 274.639,165.577 274.524,165.537C274.408,165.497 274.327,165.442 274.281,165.375C274.234,165.303 274.211,165.224 274.211,165.132L274.211,144.41C274.211,143.96 274.33,143.645 274.567,143.467C274.804,143.289 275.059,143.199 275.324,143.199L280.116,143.199C280.683,143.199 281.158,143.214 281.536,143.242C281.912,143.272 282.252,143.303 282.553,143.338C283.425,143.487 284.195,143.725 284.86,144.047C285.529,144.37 286.089,144.779 286.543,145.276C286.997,145.772 287.335,146.339 287.562,146.978C287.789,147.619 287.902,148.326 287.902,149.097C287.902,149.846 287.799,150.518 287.597,151.111C287.393,151.705 287.101,152.23 286.717,152.686C286.334,153.143 285.875,153.537 285.34,153.871C284.805,154.206 284.207,154.487 283.546,154.719C283.917,154.881 284.255,155.086 284.558,155.334C284.858,155.579 285.141,155.877 285.401,156.223C285.663,156.568 285.91,156.967 286.142,157.417C286.371,157.867 286.606,158.374 286.838,158.939L288.859,163.868C289.02,164.284 289.126,164.575 289.171,164.744C289.222,164.908 289.244,165.039 289.244,165.132ZM284.735,149.411C284.735,148.532 284.535,147.791 284.142,147.188C283.746,146.58 283.084,146.147 282.157,145.881C281.866,145.8 281.538,145.744 281.172,145.707C280.805,145.674 280.328,145.656 279.735,145.656L277.208,145.656L277.208,153.197L280.136,153.197C280.923,153.197 281.607,153.102 282.182,152.91C282.757,152.721 283.236,152.456 283.619,152.115C284.003,151.776 284.285,151.377 284.464,150.914C284.644,150.452 284.735,149.952 284.735,149.411Z" style="fill:white;"/>
                </g>
                <g>
                    <path d="M307.419,165.097C307.419,165.189 307.398,165.274 307.358,165.348C307.317,165.422 307.239,165.482 307.123,165.528C307.007,165.575 306.851,165.614 306.654,165.643C306.454,165.67 306.2,165.685 305.887,165.685C305.481,165.685 305.148,165.669 304.893,165.634C304.639,165.6 304.444,165.537 304.318,165.442C304.189,165.352 304.086,165.248 304.006,165.133L295.714,153.941L295.714,165.133C295.714,165.213 295.692,165.292 295.644,165.366C295.596,165.442 295.515,165.5 295.399,165.54C295.283,165.58 295.129,165.616 294.94,165.645C294.749,165.671 294.506,165.686 294.216,165.686C293.936,165.686 293.699,165.671 293.5,165.645C293.303,165.616 293.146,165.58 293.03,165.54C292.914,165.5 292.832,165.442 292.786,165.366C292.741,165.292 292.715,165.214 292.715,165.133L292.715,143.648C292.715,143.556 292.741,143.475 292.786,143.407C292.832,143.34 292.914,143.283 293.03,143.242C293.146,143.202 293.3,143.166 293.5,143.139C293.699,143.112 293.936,143.097 294.216,143.097C294.506,143.097 294.746,143.112 294.94,143.139C295.132,143.166 295.286,143.202 295.399,143.242C295.515,143.283 295.596,143.338 295.644,143.407C295.692,143.477 295.714,143.556 295.714,143.648L295.714,153.594L303.691,143.648C303.763,143.545 303.841,143.458 303.937,143.389C304.029,143.319 304.141,143.264 304.275,143.225C304.412,143.185 304.573,143.151 304.765,143.13C304.956,143.107 305.201,143.097 305.504,143.097C305.806,143.097 306.048,143.112 306.235,143.139C306.422,143.166 306.571,143.207 306.679,143.252C306.79,143.298 306.866,143.355 306.906,143.425C306.947,143.495 306.967,143.569 306.967,143.65C306.967,143.801 306.929,143.951 306.853,144.101C306.78,144.25 306.636,144.458 306.427,144.723L298.953,153.595L307.002,164.215C307.199,164.514 307.317,164.721 307.358,164.829C307.398,164.938 307.419,165.027 307.419,165.097Z" style="fill:white;"/>
                </g>
                <g>
                    <path d="M323.186,164.353C323.186,164.56 323.171,164.744 323.151,164.898C323.125,165.054 323.087,165.184 323.029,165.287C322.971,165.392 322.903,165.467 322.828,165.513C322.752,165.559 322.669,165.582 322.575,165.582L311.757,165.582C311.489,165.582 311.237,165.494 311,165.314C310.763,165.136 310.642,164.822 310.642,164.373L310.642,144.41C310.642,143.96 310.763,143.645 311,143.467C311.237,143.289 311.489,143.199 311.757,143.199L322.455,143.199C322.547,143.199 322.628,143.224 322.707,143.269C322.782,143.314 322.843,143.391 322.891,143.495C322.936,143.599 322.974,143.727 323.004,143.883C323.032,144.04 323.047,144.234 323.047,144.463C323.047,144.671 323.032,144.852 323.004,145.008C322.974,145.164 322.936,145.291 322.891,145.388C322.843,145.486 322.782,145.558 322.707,145.606C322.628,145.652 322.547,145.674 322.455,145.674L313.638,145.674L313.638,152.698L321.198,152.698C321.292,152.698 321.375,152.724 321.45,152.777C321.526,152.826 321.589,152.901 321.642,152.992C321.695,153.085 321.733,153.212 321.756,153.373C321.778,153.535 321.791,153.724 321.791,153.943C321.791,154.15 321.778,154.332 321.756,154.48C321.733,154.629 321.695,154.75 321.642,154.843C321.589,154.936 321.526,155.001 321.45,155.042C321.375,155.081 321.289,155.102 321.198,155.102L313.638,155.102L313.638,163.11L322.575,163.11C322.669,163.11 322.752,163.136 322.828,163.181C322.903,163.225 322.971,163.298 323.029,163.396C323.087,163.493 323.125,163.622 323.151,163.777C323.171,163.929 323.186,164.122 323.186,164.353Z" style="fill:white;"/>
                </g>
                <g>
                    <path d="M342.397,144.479C342.397,144.7 342.383,144.889 342.361,145.05C342.338,145.212 342.3,145.343 342.25,145.439C342.197,145.537 342.134,145.611 342.058,145.656C341.983,145.702 341.897,145.724 341.806,145.724L335.465,145.724L335.465,165.133C335.465,165.224 335.439,165.305 335.394,165.375C335.348,165.442 335.265,165.497 335.151,165.54C335.036,165.578 334.882,165.615 334.688,165.643C334.499,165.67 334.257,165.685 333.967,165.685C333.689,165.685 333.449,165.67 333.253,165.643C333.053,165.615 332.896,165.578 332.781,165.54C332.665,165.497 332.584,165.442 332.536,165.375C332.491,165.305 332.468,165.224 332.468,165.133L332.468,145.724L326.127,145.724C326.033,145.724 325.95,145.702 325.875,145.655C325.796,145.609 325.738,145.536 325.69,145.438C325.645,145.341 325.608,145.211 325.577,145.049C325.547,144.887 325.534,144.697 325.534,144.478C325.534,144.259 325.547,144.066 325.577,143.9C325.608,143.732 325.645,143.597 325.69,143.493C325.736,143.389 325.796,143.314 325.875,143.267C325.95,143.221 326.033,143.198 326.127,143.198L341.806,143.198C341.897,143.198 341.983,143.221 342.058,143.267C342.134,143.314 342.197,143.389 342.25,143.493C342.3,143.597 342.341,143.733 342.361,143.9C342.383,144.066 342.397,144.26 342.397,144.479Z" style="fill:white;"/>
                </g>
                <g>
                    <path d="M348.344,165.132C348.344,165.224 348.321,165.305 348.273,165.373C348.225,165.442 348.145,165.497 348.029,165.537C347.913,165.577 347.759,165.614 347.57,165.643C347.378,165.669 347.136,165.684 346.846,165.684C346.566,165.684 346.329,165.669 346.132,165.643C345.933,165.614 345.777,165.577 345.66,165.537C345.544,165.497 345.463,165.442 345.418,165.373C345.37,165.303 345.348,165.224 345.348,165.132L345.348,143.648C345.348,143.556 345.375,143.475 345.426,143.407C345.478,143.338 345.564,143.283 345.688,143.242C345.809,143.202 345.965,143.166 346.157,143.139C346.349,143.112 346.578,143.097 346.846,143.097C347.136,143.097 347.375,143.112 347.57,143.139C347.761,143.166 347.915,143.202 348.029,143.242C348.145,143.283 348.225,143.338 348.273,143.407C348.321,143.477 348.344,143.556 348.344,143.648L348.344,165.132Z" style="fill:white;"/>
                </g>
                <g>
                    <path d="M370.619,164.353C370.619,164.586 370.581,164.78 370.503,164.941C370.423,165.103 370.322,165.234 370.195,165.339C370.069,165.442 369.931,165.519 369.774,165.565C369.618,165.611 369.464,165.635 369.305,165.635L368.314,165.635C368.001,165.635 367.729,165.602 367.494,165.54C367.259,165.476 367.038,165.36 366.828,165.193C366.619,165.027 366.407,164.798 366.198,164.51C365.986,164.223 365.764,163.853 365.526,163.403L358.653,150.672C358.292,150.017 357.929,149.326 357.563,148.606C357.2,147.885 356.86,147.186 356.544,146.504L356.509,146.504C356.532,147.334 356.552,148.184 356.562,149.047C356.575,149.911 356.58,150.771 356.58,151.623L356.58,165.133C356.58,165.214 356.557,165.292 356.507,165.366C356.456,165.442 356.373,165.5 356.259,165.54C356.141,165.58 355.99,165.616 355.8,165.645C355.608,165.671 355.368,165.686 355.074,165.686C354.778,165.686 354.537,165.671 354.347,165.645C354.158,165.616 354.007,165.58 353.896,165.54C353.788,165.5 353.709,165.442 353.659,165.366C353.608,165.292 353.583,165.214 353.583,165.133L353.583,144.479C353.583,144.018 353.717,143.69 353.979,143.493C354.244,143.298 354.531,143.199 354.842,143.199L356.315,143.199C356.665,143.199 356.955,143.228 357.188,143.285C357.425,143.344 357.631,143.438 357.818,143.571C358.005,143.705 358.184,143.888 358.355,144.123C358.529,144.363 358.711,144.659 358.903,145.016L364.19,154.84C364.515,155.442 364.828,156.025 365.133,156.596C365.436,157.165 365.726,157.73 366.009,158.281C366.291,158.835 366.566,159.379 366.843,159.916C367.119,160.452 367.388,160.992 367.658,161.533L367.676,161.533C367.653,160.623 367.638,159.674 367.632,158.687C367.628,157.7 367.623,156.754 367.623,155.842L367.623,143.698C367.623,143.619 367.65,143.542 367.698,143.475C367.749,143.405 367.829,143.343 367.946,143.292C368.064,143.239 368.215,143.204 368.405,143.179C368.594,143.157 368.843,143.144 369.149,143.144C369.419,143.144 369.651,143.157 369.847,143.179C370.041,143.204 370.198,143.239 370.306,143.292C370.417,143.343 370.496,143.405 370.546,143.475C370.594,143.542 370.619,143.618 370.619,143.698L370.619,164.353Z" style="fill:white;"/>
                </g>
                <g>
                    <path d="M392.925,146.244C392.925,146.463 392.912,146.655 392.89,146.823C392.864,146.991 392.831,147.129 392.783,147.238C392.738,147.348 392.68,147.424 392.609,147.472C392.539,147.518 392.466,147.542 392.385,147.542C392.244,147.542 392.012,147.432 391.686,147.214C391.361,146.994 390.925,146.752 390.38,146.486C389.832,146.221 389.179,145.978 388.42,145.76C387.658,145.542 386.755,145.431 385.711,145.431C384.467,145.431 383.355,145.657 382.366,146.107C381.377,146.556 380.542,147.179 379.859,147.973C379.173,148.77 378.646,149.715 378.279,150.811C377.917,151.906 377.732,153.095 377.732,154.374C377.732,155.802 377.932,157.072 378.332,158.179C378.734,159.289 379.286,160.221 379.995,160.982C380.704,161.743 381.549,162.319 382.53,162.712C383.514,163.105 384.59,163.301 385.761,163.301C386.457,163.301 387.163,163.217 387.88,163.049C388.594,162.883 389.257,162.632 389.875,162.296L389.875,155.775L384.649,155.775C384.452,155.775 384.301,155.678 384.205,155.481C384.104,155.286 384.056,154.979 384.056,154.565C384.056,154.346 384.066,154.159 384.089,154.004C384.114,153.846 384.152,153.719 384.205,153.623C384.255,153.526 384.318,153.452 384.386,153.405C384.457,153.36 384.543,153.337 384.649,153.337L391.807,153.337C391.936,153.337 392.062,153.36 392.191,153.405C392.319,153.452 392.435,153.523 392.539,153.613C392.642,153.706 392.726,153.834 392.783,153.993C392.839,154.157 392.872,154.341 392.872,154.548L392.872,163.074C392.872,163.374 392.819,163.635 392.713,163.853C392.609,164.07 392.387,164.265 392.049,164.433C391.714,164.601 391.277,164.78 390.743,164.978C390.208,165.174 389.658,165.339 389.088,165.479C388.521,165.617 387.946,165.721 387.365,165.79C386.783,165.86 386.208,165.894 385.64,165.894C383.9,165.894 382.341,165.626 380.972,165.09C379.601,164.554 378.441,163.789 377.497,162.798C376.55,161.805 375.828,160.618 375.329,159.236C374.829,157.851 374.579,156.305 374.579,154.6C374.579,152.824 374.849,151.216 375.389,149.774C375.928,148.333 376.691,147.104 377.672,146.089C378.653,145.075 379.831,144.289 381.209,143.727C382.583,143.169 384.109,142.888 385.782,142.888C386.639,142.888 387.446,142.966 388.2,143.114C388.957,143.264 389.625,143.441 390.213,143.643C390.8,143.843 391.293,144.063 391.694,144.3C392.095,144.537 392.369,144.729 392.521,144.88C392.672,145.03 392.778,145.203 392.834,145.398C392.895,145.591 392.925,145.876 392.925,146.244Z" style="fill:white;"/>
                </g>
            </g>
        </g>
    </g>
</svg>
